HIERARCHY
ROOT hip
{
	OFFSET 0.000000 0.000000 0.000000 
	CHANNELS 6 Xposition Yposition Zposition Xrotation Zrotation Yrotation
	JOINT abdomen
	{
		OFFSET 0.000000 3.402643 0.000000 
		CHANNELS 3 Xrotation Zrotation Yrotation
		JOINT chest
		{
			OFFSET 0.000000 8.438565 -0.680529 
			CHANNELS 3 Xrotation Zrotation Yrotation
			JOINT neck
			{
				OFFSET 0.000000 10.207942 -0.272212 
				CHANNELS 3 Xrotation Zrotation Yrotation
				JOINT head
				{
					OFFSET 0.000000 3.130431 0.000000 
					CHANNELS 3 Xrotation Zrotation Yrotation
					End Site
					{
						OFFSET 0.000000 3.130435 0.000000 
					}
				}
			}
			JOINT lCollar
			{
				OFFSET 3.470700 6.669187 -0.816635 
				CHANNELS 3 Yrotation Zrotation Xrotation
				JOINT lShldr
				{
					OFFSET 3.198488 0.000000 0.000000 
					CHANNELS 3 Zrotation Yrotation Xrotation
					JOINT lForeArm
					{
						OFFSET 10.139888 0.000000 0.000000 
						CHANNELS 3 Yrotation Zrotation Xrotation
						JOINT lHand
						{
							OFFSET 8.370511 0.000000 0.000000 
							CHANNELS 3 Zrotation Yrotation Xrotation
							End Site
							{
								OFFSET 4.083176 0.000000 0.000000 
							}
						}
					}
				}
			}
			JOINT rCollar
			{
				OFFSET -3.470700 6.669187 -0.816635 
				CHANNELS 3 Yrotation Zrotation Xrotation
				JOINT rShldr
				{
					OFFSET -3.198488 0.000000 0.000000 
					CHANNELS 3 Zrotation Yrotation Xrotation
					JOINT rForeArm
					{
						OFFSET -10.139888 0.000000 0.000000 
						CHANNELS 3 Yrotation Zrotation Xrotation
						JOINT rHand
						{
							OFFSET -8.370511 0.000000 0.000000 
							CHANNELS 3 Zrotation Yrotation Xrotation
							End Site
							{
								OFFSET -4.083176 0.000000 0.000000 
							}
						}
					}
				}
			}
		}
	}
	JOINT lThigh
	{
		OFFSET 5.308129 -1.633274 1.361059 
		CHANNELS 3 Xrotation Zrotation Yrotation
		JOINT lShin
		{
			OFFSET -2.041588 -20.007561 0.000000 
			CHANNELS 3 Xrotation Zrotation Yrotation
			JOINT lFoot
			{
				OFFSET 0.000000 -19.190928 -1.224953 
				CHANNELS 3 Xrotation Yrotation Zrotation
				End Site
				{
					OFFSET 0.000000 -2.449906 4.627600 
				}
			}
		}
	}
	JOINT rThigh
	{
		OFFSET -5.308129 -1.633274 1.361059 
		CHANNELS 3 Xrotation Zrotation Yrotation
		JOINT rShin
		{
			OFFSET 2.041588 -20.007561 0.000000 
			CHANNELS 3 Xrotation Zrotation Yrotation
			JOINT rFoot
			{
				OFFSET 0.000000 -19.190928 -1.224953 
				CHANNELS 3 Xrotation Yrotation Zrotation
				End Site
				{
					OFFSET 0.000000 -2.449906 4.627600 
				}
			}
		}
	}
}
MOTION
Frames: 6
Frame Time: 0.033333
0.039438 44.898693 1.179866 -5.731610 -0.122134 2.900620 2.579320 0.282714 -3.405510 3.074820 0.522248 -7.199890 3.585930 -2.490180 10.480000 -5.631350 3.711370 -3.368030 13.571091 -9.564558 -2.507305 -59.522900 0.127929 42.395699 -19.122900 0.017662 6.569020 8.090150 4.702770 -15.048400 -13.778082 8.520949 -2.324683 61.212502 -0.837235 52.614399 21.965799 -0.090631 -16.145300 -8.090150 -4.702770 -15.048400 4.610155 1.628531 3.369768 4.908114 -0.029309 6.610583 -2.942412 0.015748 -1.807674 12.261070 -1.289729 -15.532412 3.036494 -0.003882 -13.328935 -6.992949 -0.488035 7.498713 
0.031239 44.892406 1.175333 -5.702960 -0.200202 2.879450 2.589080 0.321913 -3.374600 3.103940 0.601911 -7.159320 3.548040 -2.513750 10.408700 -5.586320 3.541370 -3.709410 13.550143 -9.536860 -2.497791 -59.676800 0.025325 42.336899 -19.039700 0.020720 6.057940 8.090150 4.702770 -15.048400 -13.785520 8.454205 -2.310043 61.192299 -0.739971 52.704800 22.114000 -0.094340 -15.871700 -8.090150 -4.702770 -15.048400 4.493500 1.726363 3.406175 5.111440 -0.020168 6.554004 -3.158126 -0.004719 -1.922900 12.254558 -1.191600 -15.604211 2.999120 -0.003181 -13.134981 -7.076478 -0.476916 7.398601 
0.031880 44.881504 1.159227 -5.604700 -0.219500 2.908480 2.579320 0.341488 -3.364130 3.074550 0.631988 -7.139860 3.578140 -2.539430 10.364700 -5.694110 3.484080 -3.971810 13.463776 -9.606835 -2.506422 -59.737598 -0.069760 42.171902 -18.929399 0.027643 5.435820 8.090150 4.702770 -15.048400 -13.794695 8.434886 -2.313212 61.202999 -0.604436 52.672298 22.020700 -0.091235 -15.714400 -8.090150 -4.702770 -15.048400 4.302562 1.766542 3.440387 5.244054 -0.028422 6.450855 -3.303863 -0.006073 -1.966644 12.147901 -1.182186 -15.637855 3.006662 -0.004080 -13.076050 -7.179370 -0.485577 7.407473 
0.030736 44.871731 1.142260 -5.507060 -0.210047 2.904970 2.530470 0.322153 -3.335900 2.976490 0.576523 -7.064070 3.735800 -2.481710 10.260400 -5.717920 3.593080 -4.108270 13.314943 -9.603148 -2.494031 -59.801800 -0.124845 41.880901 -18.718599 0.023436 4.788380 8.090150 4.702770 -15.048400 -13.886983 8.526514 -2.334302 61.169800 -0.557868 52.573799 21.785801 -0.088510 -15.721700 -8.090150 -4.702770 -15.048400 4.145923 1.756714 3.507041 5.358416 -0.029507 6.377990 -3.428600 0.013361 -1.948866 12.003859 -1.211739 -15.690230 3.072203 0.004858 -13.014688 -7.325290 -0.485520 7.453351 
0.009990 44.864758 1.142999 -5.509140 -0.182156 2.804170 2.540210 0.302803 -3.307310 3.005450 0.549940 -6.995690 3.698020 -2.454580 10.167000 -5.676280 3.581370 -4.039090 13.247945 -9.662874 -2.501960 -59.691601 -0.166295 42.161098 -18.967699 0.026436 4.312390 8.090150 4.702770 -15.048400 -13.907422 8.544757 -2.326764 61.055099 -0.461775 52.798901 22.054100 -0.099379 -15.810400 -8.090150 -4.702770 -15.048400 4.209352 1.725942 3.628541 5.241260 -0.030277 6.382568 -3.423100 0.004119 -1.994911 11.948294 -1.269906 -15.614396 3.170023 0.004821 -13.010806 -7.431912 -0.479817 7.479542 
-0.027341 44.858814 1.165502 -5.492720 -0.135519 2.651930 2.452220 0.264858 -3.123730 2.827850 0.467459 -6.618620 3.988750 -2.331510 9.625620 -5.562590 3.774140 -3.923000 12.801124 -9.384361 -2.428742 -59.487301 0.388051 44.862000 -18.125467 0.033065 4.222150 8.090150 4.702770 -15.048400 -14.437391 8.449347 -2.355649 60.555901 -0.828886 54.373001 23.678400 -0.102825 -15.985200 -8.090150 -4.702770 -15.048400 4.303996 1.708775 3.916718 5.109423 -0.028743 6.260781 -3.402239 0.012684 -2.139108 11.941035 -1.309226 -15.374352 3.184180 -0.003324 -13.108104 -7.506878 -0.486001 7.392770 
